<svg width="29" height="43" viewBox="0 0 29 43" fill="none" xmlns="http://www.w3.org/2000/svg">
<mask id="path-1-outside-1_1_32" maskUnits="userSpaceOnUse" x="0" y="11" width="9" height="10" fill="black">
<rect fill="white" y="11" width="9" height="10"/>
<path d="M0.883789 16.582H8.11621V15.4746H0.883789V16.582ZM3.94629 19.7129H5.05371V12.3438H3.94629V19.7129Z"/>
</mask>
<path d="M0.883789 16.582H8.11621V15.4746H0.883789V16.582ZM3.94629 19.7129H5.05371V12.3438H3.94629V19.7129Z" fill="black"/>
<path d="M0.883789 16.582H0.0837891V17.382H0.883789V16.582ZM8.11621 16.582V17.382H8.91621V16.582H8.11621ZM8.11621 15.4746H8.91621V14.6746H8.11621V15.4746ZM0.883789 15.4746V14.6746H0.0837891V15.4746H0.883789ZM3.94629 19.7129H3.14629V20.5129H3.94629V19.7129ZM5.05371 19.7129V20.5129H5.85371V19.7129H5.05371ZM5.05371 12.3438H5.85371V11.5437H5.05371V12.3438ZM3.94629 12.3438V11.5437H3.14629V12.3438H3.94629ZM0.883789 17.382H8.11621V15.782H0.883789V17.382ZM8.91621 16.582V15.4746H7.31621V16.582H8.91621ZM8.11621 14.6746H0.883789V16.2746H8.11621V14.6746ZM0.0837891 15.4746V16.582H1.68379V15.4746H0.0837891ZM3.94629 20.5129H5.05371V18.9129H3.94629V20.5129ZM5.85371 19.7129V12.3438H4.25371V19.7129H5.85371ZM5.05371 11.5437H3.94629V13.1438H5.05371V11.5437ZM3.14629 12.3438V19.7129H4.74629V12.3438H3.14629Z" fill="black" mask="url(#path-1-outside-1_1_32)"/>
<path d="M22.8387 10.0646L20.3996 9.1824L4.89044 33.3647L7.32955 34.2469L22.8387 10.0646Z" fill="black"/>
<path d="M18.125 29.1094H26.875V26.8945H18.125V29.1094Z" fill="black"/>
</svg>
