<svg width="45" height="26" viewBox="0 0 45 26" fill="none" xmlns="http://www.w3.org/2000/svg">
<path d="M0.853516 25H4.77148L11.5449 5.01172H12.5908V1.04395H9.56934L0.853516 25ZM5.08691 18.5254H18.0693L16.9902 15.5371H6.16602L5.08691 18.5254ZM18.3848 25H22.3027L13.6035 1.04395H11.6279V5.01172L18.3848 25ZM34.3555 25.3984C36.1263 25.3984 37.7201 25.0664 39.1367 24.4023C40.5534 23.7383 41.7155 22.8086 42.623 21.6133C43.5417 20.4069 44.1227 19.0068 44.3662 17.4131L44.3994 17.2471H40.6973L40.6475 17.4131C40.3597 18.4202 39.9225 19.2725 39.3359 19.9697C38.7493 20.667 38.0355 21.1982 37.1943 21.5635C36.3643 21.9176 35.418 22.0947 34.3555 22.0947C32.8835 22.0947 31.5996 21.724 30.5039 20.9824C29.4082 20.2409 28.5615 19.1895 27.9639 17.8281C27.3662 16.4557 27.0674 14.8509 27.0674 13.0137V12.9971C27.0674 11.1488 27.3662 9.54948 27.9639 8.19922C28.5615 6.84896 29.4027 5.80306 30.4873 5.06152C31.583 4.31999 32.8724 3.94922 34.3555 3.94922C35.4401 3.94922 36.3975 4.13184 37.2275 4.49707C38.0687 4.85124 38.7715 5.36589 39.3359 6.04102C39.9115 6.71615 40.3265 7.52409 40.5811 8.46484L40.6807 8.79688H44.3828L44.3662 8.63086C44.1227 7.04818 43.5417 5.65918 42.623 4.46387C41.7044 3.26855 40.5368 2.33333 39.1201 1.6582C37.7035 0.983073 36.1152 0.645508 34.3555 0.645508C32.0866 0.645508 30.1221 1.14909 28.4619 2.15625C26.8018 3.15234 25.5179 4.57454 24.6104 6.42285C23.7028 8.27116 23.249 10.4626 23.249 12.9971V13.0137C23.249 15.5482 23.7028 17.7451 24.6104 19.6045C25.5179 21.4528 26.8018 22.8805 28.4619 23.8877C30.1331 24.8949 32.0977 25.3984 34.3555 25.3984Z" fill="black"/>
</svg>
