<svg width="24" height="24" viewBox="0 0 24 24" fill="none" xmlns="http://www.w3.org/2000/svg">
<mask id="path-1-outside-1_1_16" maskUnits="userSpaceOnUse" x="-1" y="0" width="26" height="25" fill="black">
<rect fill="white" x="-1" width="26" height="25"/>
<path d="M0.117188 14.1875H23.9062V10.3906H0.117188V14.1875ZM10.1016 23.8906H13.8984V0.6875H10.1016V23.8906Z"/>
</mask>
<path d="M0.117188 14.1875H23.9062V10.3906H0.117188V14.1875ZM10.1016 23.8906H13.8984V0.6875H10.1016V23.8906Z" fill="white"/>
<path d="M0.117188 14.1875H-0.282813V14.5875H0.117188V14.1875ZM23.9062 14.1875V14.5875H24.3062V14.1875H23.9062ZM23.9062 10.3906H24.3062V9.99063H23.9062V10.3906ZM0.117188 10.3906V9.99063H-0.282813V10.3906H0.117188ZM10.1016 23.8906H9.70156V24.2906H10.1016V23.8906ZM13.8984 23.8906V24.2906H14.2984V23.8906H13.8984ZM13.8984 0.6875H14.2984V0.2875H13.8984V0.6875ZM10.1016 0.6875V0.2875H9.70156V0.6875H10.1016ZM0.117188 14.5875H23.9062V13.7875H0.117188V14.5875ZM24.3062 14.1875V10.3906H23.5063V14.1875H24.3062ZM23.9062 9.99063H0.117188V10.7906H23.9062V9.99063ZM-0.282813 10.3906V14.1875H0.517188V10.3906H-0.282813ZM10.1016 24.2906H13.8984V23.4906H10.1016V24.2906ZM14.2984 23.8906V0.6875H13.4984V23.8906H14.2984ZM13.8984 0.2875H10.1016V1.0875H13.8984V0.2875ZM9.70156 0.6875V23.8906H10.5016V0.6875H9.70156Z" fill="white" mask="url(#path-1-outside-1_1_16)"/>
</svg>
