<svg width="26" height="26" viewBox="0 0 26 26" fill="none" xmlns="http://www.w3.org/2000/svg">
<mask id="path-1-outside-1_1_21" maskUnits="userSpaceOnUse" x="0" y="0" width="26" height="26" fill="black">
<rect fill="white" width="26" height="26"/>
<path d="M5.6123 12.8643C7.12858 12.8643 8.31283 12.3275 9.16504 11.2539C10.0283 10.1693 10.46 8.7028 10.46 6.85449V6.83789C10.46 4.98958 10.0283 3.52865 9.16504 2.45508C8.31283 1.38151 7.12858 0.844727 5.6123 0.844727C4.1071 0.844727 2.92285 1.38151 2.05957 2.45508C1.19629 3.52865 0.764648 4.98958 0.764648 6.83789V6.85449C0.764648 8.7028 1.19629 10.1693 2.05957 11.2539C2.92285 12.3275 4.1071 12.8643 5.6123 12.8643ZM5.6123 10.8721C4.80436 10.8721 4.17904 10.5179 3.73633 9.80957C3.29362 9.10124 3.07227 8.11621 3.07227 6.85449V6.83789C3.07227 5.57617 3.29362 4.59668 3.73633 3.89941C4.17904 3.19108 4.80436 2.83691 5.6123 2.83691C6.42025 2.83691 7.04557 3.19108 7.48828 3.89941C7.93099 4.59668 8.15234 5.57617 8.15234 6.83789V6.85449C8.15234 8.11621 7.93099 9.10124 7.48828 9.80957C7.04557 10.5179 6.42025 10.8721 5.6123 10.8721ZM6.69141 25L22.0312 1.04395H19.3418L3.96875 25H6.69141ZM20.3711 25.1992C21.8874 25.1992 23.0716 24.6624 23.9238 23.5889C24.7871 22.5042 25.2188 21.0378 25.2188 19.1895V19.1729C25.2188 17.3245 24.7871 15.8636 23.9238 14.79C23.0716 13.7165 21.8874 13.1797 20.3711 13.1797C18.8659 13.1797 17.6816 13.7165 16.8184 14.79C15.9551 15.8636 15.5234 17.3245 15.5234 19.1729V19.1895C15.5234 21.0378 15.9551 22.5042 16.8184 23.5889C17.6816 24.6624 18.8659 25.1992 20.3711 25.1992ZM20.3711 23.207C19.5632 23.207 18.9378 22.8529 18.4951 22.1445C18.0524 21.4362 17.8311 20.4512 17.8311 19.1895V19.1729C17.8311 17.9111 18.0524 16.9316 18.4951 16.2344C18.9378 15.526 19.5632 15.1719 20.3711 15.1719C21.179 15.1719 21.8044 15.526 22.2471 16.2344C22.6898 16.9316 22.9111 17.9111 22.9111 19.1729V19.1895C22.9111 20.4512 22.6898 21.4362 22.2471 22.1445C21.8044 22.8529 21.179 23.207 20.3711 23.207Z"/>
</mask>
<path d="M5.6123 12.8643C7.12858 12.8643 8.31283 12.3275 9.16504 11.2539C10.0283 10.1693 10.46 8.7028 10.46 6.85449V6.83789C10.46 4.98958 10.0283 3.52865 9.16504 2.45508C8.31283 1.38151 7.12858 0.844727 5.6123 0.844727C4.1071 0.844727 2.92285 1.38151 2.05957 2.45508C1.19629 3.52865 0.764648 4.98958 0.764648 6.83789V6.85449C0.764648 8.7028 1.19629 10.1693 2.05957 11.2539C2.92285 12.3275 4.1071 12.8643 5.6123 12.8643ZM5.6123 10.8721C4.80436 10.8721 4.17904 10.5179 3.73633 9.80957C3.29362 9.10124 3.07227 8.11621 3.07227 6.85449V6.83789C3.07227 5.57617 3.29362 4.59668 3.73633 3.89941C4.17904 3.19108 4.80436 2.83691 5.6123 2.83691C6.42025 2.83691 7.04557 3.19108 7.48828 3.89941C7.93099 4.59668 8.15234 5.57617 8.15234 6.83789V6.85449C8.15234 8.11621 7.93099 9.10124 7.48828 9.80957C7.04557 10.5179 6.42025 10.8721 5.6123 10.8721ZM6.69141 25L22.0312 1.04395H19.3418L3.96875 25H6.69141ZM20.3711 25.1992C21.8874 25.1992 23.0716 24.6624 23.9238 23.5889C24.7871 22.5042 25.2188 21.0378 25.2188 19.1895V19.1729C25.2188 17.3245 24.7871 15.8636 23.9238 14.79C23.0716 13.7165 21.8874 13.1797 20.3711 13.1797C18.8659 13.1797 17.6816 13.7165 16.8184 14.79C15.9551 15.8636 15.5234 17.3245 15.5234 19.1729V19.1895C15.5234 21.0378 15.9551 22.5042 16.8184 23.5889C17.6816 24.6624 18.8659 25.1992 20.3711 25.1992ZM20.3711 23.207C19.5632 23.207 18.9378 22.8529 18.4951 22.1445C18.0524 21.4362 17.8311 20.4512 17.8311 19.1895V19.1729C17.8311 17.9111 18.0524 16.9316 18.4951 16.2344C18.9378 15.526 19.5632 15.1719 20.3711 15.1719C21.179 15.1719 21.8044 15.526 22.2471 16.2344C22.6898 16.9316 22.9111 17.9111 22.9111 19.1729V19.1895C22.9111 20.4512 22.6898 21.4362 22.2471 22.1445C21.8044 22.8529 21.179 23.207 20.3711 23.207Z" fill="black"/>
<path d="M9.16504 11.2539L8.85207 11.0048L8.85175 11.0052L9.16504 11.2539ZM9.16504 2.45508L8.85174 2.70378L8.85332 2.70574L9.16504 2.45508ZM2.05957 11.2539L1.7466 11.503L1.74785 11.5046L2.05957 11.2539ZM3.73633 9.80957L3.39713 10.0216L3.73633 9.80957ZM3.73633 3.89941L4.07402 4.11382L4.07553 4.11141L3.73633 3.89941ZM7.48828 3.89941L7.14907 4.11142L7.1506 4.11382L7.48828 3.89941ZM7.48828 9.80957L7.82748 10.0216L7.48828 9.80957ZM6.69141 25V25.4H6.91025L7.02826 25.2157L6.69141 25ZM22.0312 1.04395L22.3681 1.25965L22.7624 0.643946H22.0312V1.04395ZM19.3418 1.04395V0.643946H19.1232L19.0052 0.827913L19.3418 1.04395ZM3.96875 25L3.6321 24.784L3.23679 25.4H3.96875V25ZM23.9238 23.5889L23.6109 23.3398L23.6105 23.3402L23.9238 23.5889ZM23.9238 14.79L23.6105 15.0387L23.6121 15.0407L23.9238 14.79ZM16.8184 23.5889L16.5054 23.838L16.5066 23.8395L16.8184 23.5889ZM18.4951 16.2344L18.8328 16.4488L18.8343 16.4464L18.4951 16.2344ZM22.2471 16.2344L21.9079 16.4464L21.9094 16.4488L22.2471 16.2344ZM5.6123 13.2643C7.23584 13.2643 8.5415 12.6828 9.47833 11.5026L8.85175 11.0052C8.08415 11.9722 7.02132 12.4643 5.6123 12.4643V13.2643ZM9.47801 11.503C10.4139 10.3271 10.86 8.76311 10.86 6.85449H10.06C10.06 8.64248 9.64272 10.0114 8.85207 11.0048L9.47801 11.503ZM10.86 6.85449V6.83789H10.06V6.85449H10.86ZM10.86 6.83789C10.86 4.92955 10.414 3.37 9.47676 2.20442L8.85332 2.70574C9.64261 3.68729 10.06 5.04962 10.06 6.83789H10.86ZM9.47833 2.20638C8.5415 1.02622 7.23584 0.444727 5.6123 0.444727V1.24473C7.02132 1.24473 8.08415 1.7368 8.85175 2.70377L9.47833 2.20638ZM5.6123 0.444727C3.99875 0.444727 2.69474 1.02687 1.74785 2.20442L2.37129 2.70574C3.15096 1.73615 4.21544 1.24473 5.6123 1.24473V0.444727ZM1.74785 2.20442C0.810577 3.37 0.364648 4.92955 0.364648 6.83789H1.16465C1.16465 5.04962 1.582 3.68729 2.37129 2.70574L1.74785 2.20442ZM0.364648 6.83789V6.85449H1.16465V6.83789H0.364648ZM0.364648 6.85449C0.364648 8.76311 0.810684 10.3271 1.7466 11.503L2.37254 11.0048C1.58189 10.0114 1.16465 8.64248 1.16465 6.85449H0.364648ZM1.74785 11.5046C2.69474 12.6821 3.99875 13.2643 5.6123 13.2643V12.4643C4.21544 12.4643 3.15096 11.9728 2.37129 11.0032L1.74785 11.5046ZM5.6123 10.4721C4.94786 10.4721 4.44815 10.1938 4.07553 9.59757L3.39713 10.0216C3.90993 10.842 4.66087 11.2721 5.6123 11.2721V10.4721ZM4.07553 9.59757C3.68793 8.97742 3.47227 8.07683 3.47227 6.85449H2.67227C2.67227 8.1556 2.89931 9.22505 3.39713 10.0216L4.07553 9.59757ZM3.47227 6.85449V6.83789H2.67227V6.85449H3.47227ZM3.47227 6.83789C3.47227 5.61496 3.68815 4.72155 4.07401 4.11382L3.39864 3.68501C2.89909 4.47181 2.67227 5.53738 2.67227 6.83789H3.47227ZM4.07553 4.11141C4.44815 3.51522 4.94786 3.23691 5.6123 3.23691V2.43691C4.66087 2.43691 3.90993 2.86694 3.39713 3.68741L4.07553 4.11141ZM5.6123 3.23691C6.27675 3.23691 6.77646 3.51522 7.14908 4.11141L7.82748 3.68741C7.31468 2.86694 6.56374 2.43691 5.6123 2.43691V3.23691ZM7.1506 4.11382C7.53646 4.72155 7.75234 5.61496 7.75234 6.83789H8.55234C8.55234 5.53738 8.32552 4.47181 7.82597 3.68501L7.1506 4.11382ZM7.75234 6.83789V6.85449H8.55234V6.83789H7.75234ZM7.75234 6.85449C7.75234 8.07683 7.53668 8.97742 7.14908 9.59757L7.82748 10.0216C8.3253 9.22505 8.55234 8.1556 8.55234 6.85449H7.75234ZM7.14908 9.59757C6.77646 10.1938 6.27675 10.4721 5.6123 10.4721V11.2721C6.56374 11.2721 7.31468 10.842 7.82748 10.0216L7.14908 9.59757ZM7.02826 25.2157L22.3681 1.25965L21.6944 0.828244L6.35455 24.7843L7.02826 25.2157ZM22.0312 0.643946H19.3418V1.44394H22.0312V0.643946ZM19.0052 0.827913L3.6321 24.784L4.3054 25.216L19.6784 1.25998L19.0052 0.827913ZM3.96875 25.4H6.69141V24.6H3.96875V25.4ZM20.3711 25.5992C21.9946 25.5992 23.3003 25.0177 24.2371 23.8376L23.6105 23.3402C22.8429 24.3071 21.7801 24.7992 20.3711 24.7992V25.5992ZM24.2368 23.838C25.1727 22.6621 25.6187 21.0981 25.6187 19.1895H24.8188C24.8188 20.9774 24.4015 22.3464 23.6109 23.3398L24.2368 23.838ZM25.6187 19.1895V19.1729H24.8188V19.1895H25.6187ZM25.6187 19.1729C25.6187 17.2645 25.1728 15.705 24.2355 14.5394L23.6121 15.0407C24.4014 16.0223 24.8188 17.3846 24.8188 19.1729H25.6187ZM24.2371 14.5413C23.3003 13.3612 21.9946 12.7797 20.3711 12.7797V13.5797C21.7801 13.5797 22.8429 14.0718 23.6105 15.0387L24.2371 14.5413ZM20.3711 12.7797C18.7575 12.7797 17.4535 13.3618 16.5066 14.5394L17.1301 15.0407C17.9098 14.0711 18.9742 13.5797 20.3711 13.5797V12.7797ZM16.5066 14.5394C15.5694 15.705 15.1234 17.2645 15.1234 19.1729H15.9234C15.9234 17.3846 16.3408 16.0223 17.1301 15.0407L16.5066 14.5394ZM15.1234 19.1729V19.1895H15.9234V19.1729H15.1234ZM15.1234 19.1895C15.1234 21.0981 15.5695 22.6621 16.5054 23.838L17.1313 23.3398C16.3407 22.3464 15.9234 20.9774 15.9234 19.1895H15.1234ZM16.5066 23.8395C17.4535 25.0171 18.7575 25.5992 20.3711 25.5992V24.7992C18.9742 24.7992 17.9098 24.3078 17.1301 23.3382L16.5066 23.8395ZM20.3711 22.807C19.7066 22.807 19.2069 22.5287 18.8343 21.9325L18.1559 22.3565C18.6687 23.177 19.4197 23.607 20.3711 23.607V22.807ZM18.8343 21.9325C18.4467 21.3124 18.2311 20.4118 18.2311 19.1895H17.4311C17.4311 20.4906 17.6581 21.56 18.1559 22.3565L18.8343 21.9325ZM18.2311 19.1895V19.1729H17.4311V19.1895H18.2311ZM18.2311 19.1729C18.2311 17.9499 18.4469 17.0565 18.8328 16.4488L18.1574 16.02C17.6579 16.8068 17.4311 17.8723 17.4311 19.1729H18.2311ZM18.8343 16.4464C19.2069 15.8502 19.7066 15.5719 20.3711 15.5719V14.7719C19.4197 14.7719 18.6687 15.2019 18.1559 16.0224L18.8343 16.4464ZM20.3711 15.5719C21.0355 15.5719 21.5353 15.8502 21.9079 16.4464L22.5863 16.0224C22.0735 15.2019 21.3225 14.7719 20.3711 14.7719V15.5719ZM21.9094 16.4488C22.2952 17.0565 22.5111 17.9499 22.5111 19.1729H23.3111C23.3111 17.8723 23.0843 16.8068 22.5848 16.02L21.9094 16.4488ZM22.5111 19.1729V19.1895H23.3111V19.1729H22.5111ZM22.5111 19.1895C22.5111 20.4118 22.2955 21.3124 21.9079 21.9325L22.5863 22.3565C23.0841 21.56 23.3111 20.4906 23.3111 19.1895H22.5111ZM21.9079 21.9325C21.5353 22.5287 21.0355 22.807 20.3711 22.807V23.607C21.3225 23.607 22.0735 23.177 22.5863 22.3565L21.9079 21.9325Z" fill="black" mask="url(#path-1-outside-1_1_21)"/>
</svg>
